<svg id="Outline" height="512" viewBox="0 0 512 512" width="512" xmlns="http://www.w3.org/2000/svg"><path d="m488 368h-88v-72a8 8 0 0 0 -8-8h-120v-264a8 8 0 0 0 -8-8h-240a8 8 0 0 0 -8 8v464a8 8 0 0 0 8 8h464a8 8 0 0 0 8-8v-112a8 8 0 0 0 -8-8zm-96 16h16v32h-16zm-56-80v32h-16v-32zm-96 96h16v32h-16zm-64-8v88h-144v-448h224v352h-72a8 8 0 0 0 -8 8zm16 8h32v40a8 8 0 0 0 8 8h32a8 8 0 0 0 8-8v-40h32v80h-112zm112-24v8h-32v-80h32v40a8 8 0 0 0 8 8h32a8 8 0 0 0 8-8v-40h32v64h-72a8 8 0 0 0 -8 8zm176 104h-160v-96h56v40a8 8 0 0 0 8 8h32a8 8 0 0 0 8-8v-40h56z"/><path d="m224 120v-48a8 8 0 0 0 -8-8h-144a8 8 0 0 0 -8 8v48a8 8 0 0 0 8 8h144a8 8 0 0 0 8-8zm-16-8h-128v-32h128z"/><path d="m240 264a24 24 0 1 0 -24 24 24.027 24.027 0 0 0 24-24zm-24 8a8 8 0 1 1 8-8 8.009 8.009 0 0 1 -8 8z"/><path d="m360 448h-16a8 8 0 0 0 0 16h16a8 8 0 0 0 0-16z"/></svg>