<svg id="Outline" height="512" viewBox="0 0 512 512" width="512" xmlns="http://www.w3.org/2000/svg"><path d="m465.711 383.51v-15.02l19.65-17.74a8 8 0 0 0 2.03-9l-10.75-25.95a8.012 8.012 0 0 0 -7.8-4.928l-26.441 1.347-10.618-10.619 1.35-26.44a8 8 0 0 0 -4.928-7.8l-25.954-10.75a8 8 0 0 0 -9 2.03l-17.74 19.65h-15.02l-17.74-19.65a8 8 0 0 0 -9-2.03l-25.95 10.749a8 8 0 0 0 -4.928 7.8l1.35 26.44-10.622 10.62-26.439-1.351a7.993 7.993 0 0 0 -7.8 4.928l-10.75 25.954a8 8 0 0 0 2.03 9l19.65 17.74v15.02l-19.65 17.74a8 8 0 0 0 -2.03 9l10.75 25.954a8.01 8.01 0 0 0 7.8 4.928l26.439-1.351 10.62 10.621-1.35 26.439a8 8 0 0 0 4.927 7.8l25.955 10.751a8 8 0 0 0 9-2.03l17.74-19.65h15.02l17.74 19.65a8 8 0 0 0 9 2.03l25.955-10.751a8 8 0 0 0 4.927-7.8l-1.35-26.439 10.62-10.621 26.439 1.351a8 8 0 0 0 7.8-4.928l10.75-25.954a8 8 0 0 0 -2.03-9zm-1.692 41.355-24.351-1.244a8.008 8.008 0 0 0 -6.065 2.333l-15.649 15.646a8 8 0 0 0 -2.333 6.064l1.244 24.351-15.522 6.429-16.343-18.094a8 8 0 0 0 -5.938-2.639h-22.13a8 8 0 0 0 -5.932 2.639l-16.34 18.1-15.522-6.429 1.244-24.351a8 8 0 0 0 -2.333-6.064l-15.649-15.652a8.02 8.02 0 0 0 -6.065-2.333l-24.351 1.244-6.429-15.522 18.095-16.343a8 8 0 0 0 2.639-5.939v-22.13a8 8 0 0 0 -2.639-5.931l-18.1-16.339 6.429-15.522 24.351 1.244a8.014 8.014 0 0 0 6.065-2.333l15.649-15.65a8 8 0 0 0 2.333-6.064l-1.244-24.352 15.522-6.428 16.345 18.094a8 8 0 0 0 5.938 2.639h22.13a8 8 0 0 0 5.932-2.639l16.34-18.1 15.522 6.428-1.244 24.352a8 8 0 0 0 2.333 6.064l15.649 15.65a8 8 0 0 0 6.065 2.333l24.351-1.244 6.429 15.522-18.095 16.345a8 8 0 0 0 -2.639 5.939v22.13a8 8 0 0 0 2.639 5.931l18.1 16.339z"/><path d="m368 320a56 56 0 1 0 56 56 56.063 56.063 0 0 0 -56-56zm0 96a40 40 0 1 1 40-40 40.045 40.045 0 0 1 -40 40z"/><path d="m90.771 225.445-15.737-2.89a185.624 185.624 0 0 0 -3.034 33.445h16a169.519 169.519 0 0 1 2.771-30.555z"/><path d="m197.456 430.488a183.44 183.44 0 0 0 41.826 8.762l1.436-15.936a167.385 167.385 0 0 1 -38.174-8z"/><path d="m423.829 248.357 15.984-.714a183.592 183.592 0 0 0 -9.324-50.187l-15.17 5.088a167.578 167.578 0 0 1 8.51 45.813z"/><path d="m256 88a168.334 168.334 0 0 1 45.823 6.323l4.354-15.4a185.2 185.2 0 0 0 -100.354 0l4.354 15.4a168.345 168.345 0 0 1 45.823-6.323z"/><path d="m328 184h128a8 8 0 0 0 8-8v-80a7.949 7.949 0 0 0 -.851-3.575h.006l-16-32a8 8 0 0 0 -7.155-4.425h-96a8 8 0 0 0 -7.155 4.422l-16 32h.006a7.949 7.949 0 0 0 -.851 3.578v80a8 8 0 0 0 8 8zm120-16h-112v-64h24v24a8 8 0 0 0 8 8h48a8 8 0 0 0 8-8v-24h24zm-40-64v16h-32v-16zm-29.754-16 4-16h19.508l4 16zm64.81 0h-20.81l-4-16h16.81zm-94.112-16h16.81l-4 16h-20.81z"/><path d="m64 208v-16h-32v-160h80v32h16v-40a8 8 0 0 0 -8-8h-96a8 8 0 0 0 -8 8v176a8 8 0 0 0 8 8z"/><path d="m48 48h16v16h-16z"/><path d="m80 48h16v16h-16z"/><path d="m48 80h16v16h-16z"/><path d="m48 112h16v16h-16z"/><path d="m48 144h16v16h-16z"/><path d="m184 80h-96a8 8 0 0 0 -8 8v112a8 8 0 0 0 8 8h96a8 8 0 0 0 8-8v-112a8 8 0 0 0 -8-8zm-8 112h-80v-96h80z"/><path d="m112 144h16v16h-16z"/><path d="m144 144h16v16h-16z"/><path d="m112 112h16v16h-16z"/><path d="m144 112h16v16h-16z"/><path d="m144 344h-4.261a48 48 0 1 0 -71.478 0h-4.261a40.045 40.045 0 0 0 -40 40v72a24.027 24.027 0 0 0 24 24v16h16v-16a24.027 24.027 0 0 0 24-24v-16a8 8 0 0 0 -2.343-5.657l-13.657-13.656v-20.687h-16v24a8 8 0 0 0 2.343 5.657l13.657 13.656v12.687a8.009 8.009 0 0 1 -8 8h-16a8.009 8.009 0 0 1 -8-8v-72a24.027 24.027 0 0 1 24-24h80a24.027 24.027 0 0 1 24 24v72a8.009 8.009 0 0 1 -8 8h-16a8.009 8.009 0 0 1 -8-8v-12.687l13.657-13.656a8 8 0 0 0 2.343-5.657v-24h-16v20.687l-13.657 13.656a8 8 0 0 0 -2.343 5.657v16a24.027 24.027 0 0 0 24 24v16h16v-16a24.027 24.027 0 0 0 24-24v-72a40.045 40.045 0 0 0 -40-40zm-72-32a32 32 0 1 1 32 32 32.036 32.036 0 0 1 -32-32z"/><path d="m116.009 222.124a144.649 144.649 0 0 0 -4.009 33.876h16a128.628 128.628 0 0 1 3.563-30.124z"/><path d="m196.7 387.261a143.017 143.017 0 0 0 42.367 11.753l1.862-15.891a127.025 127.025 0 0 1 -37.633-10.44z"/><path d="m383.782 248.463 15.973-.926a142.943 142.943 0 0 0 -12.494-50.837l-14.577 6.6a127 127 0 0 1 11.098 45.163z"/><path d="m256 128a127.5 127.5 0 0 1 45.176 8.2l5.648-14.97a144.573 144.573 0 0 0 -101.648 0l5.648 14.97a127.5 127.5 0 0 1 45.176-8.2z"/></svg>