<svg id="Layer_1" enable-background="new 0 0 512 512" height="512" viewBox="0 0 512 512" width="512" xmlns="http://www.w3.org/2000/svg"><g id="XMLID_106_"><g id="XMLID_638_"><path id="XMLID_727_" d="m416 140.759c23.87 0 43.29-19.42 43.29-43.291 0-23.87-19.42-43.29-43.29-43.29s-43.29 19.42-43.29 43.29c0 23.871 19.42 43.291 43.29 43.291zm0-66.58c12.842 0 23.29 10.448 23.29 23.29s-10.448 23.291-23.29 23.291-23.29-10.448-23.29-23.291 10.448-23.29 23.29-23.29z"/><path id="XMLID_742_" d="m512 96.097c0-52.935-43.065-96-96-96-22.334 0-42.911 7.666-59.238 20.505-31.859-13.67-65.723-20.602-100.762-20.602-68.38 0-132.667 26.629-181.019 74.981s-74.981 112.639-74.981 181.019c0 22.501 2.924 44.797 8.685 66.335-5.573 12.153-8.685 25.66-8.685 39.881 0 21.922 7.581 43.345 21.352 60.359.021.028 66.764 85.576 66.764 85.576 1.894 2.429 4.802 3.849 7.883 3.849 3.08 0 5.988-1.419 7.883-3.847 0 0 10.877-13.936 23.849-30.559 38.865 22.536 83.017 34.406 128.269 34.406 21.015 0 41.916-2.554 62.123-7.592 5.358-1.336 8.62-6.763 7.284-12.122s-6.767-8.62-12.122-7.284c-18.626 4.644-37.899 6.998-57.285 6.998-15.906 0-31.662-1.599-47.057-4.717l51.315-49.482c14.102-13.596 22.188-32.629 22.188-52.217 0-2.343 1.906-4.25 4.25-4.25 13.371 0 24.25-10.878 24.25-24.25v-48.898c0-9.449-5.549-18.101-14.138-22.041l-52.724-24.189-21.214-13.708c-11.883-7.677-25.498-10.811-38.726-9.811l-7.493-15.537c-2.542-5.273-2.215-11.141.898-16.098 3.113-4.958 8.256-7.801 14.11-7.801 11.792 0 22.932-5.722 29.8-15.307l42.732-59.632c11.642-16.245 8.006-39.082-8.105-50.909l-61.388-45.061c19.557-5.266 40.104-8.092 61.302-8.092 29.538 0 58.161 5.348 85.288 15.888-13.307 16.479-21.288 37.428-21.288 60.209 0 16.329 4.211 32.377 12.048 46.536-17.724 6.429-31.901 21.11-37.984 40.333-5.813 18.373-3.419 38.26 6.569 54.563 9.401 15.344 24.678 25.789 41.911 28.657 15.684 2.61 28.646 14.812 33.026 31.085 3.87 14.384 5.833 29.257 5.833 44.208 0 33.686 21.773 62.135 51.369 70.814-12.131 13.741-25.926 26.172-41.236 36.932-4.519 3.176-5.607 9.413-2.432 13.932 1.947 2.77 5.044 4.251 8.19 4.251 1.986 0 3.993-.591 5.741-1.819 68.232-47.954 108.965-126.304 108.965-209.589 0-34.974-6.91-68.783-20.532-100.595 13.246-16.848 20.532-37.81 20.532-59.308zm-415.998 389.649s-58.834-75.421-58.944-75.556c-11-13.496-17.058-30.534-17.058-47.974 0-41.907 34.093-76 76-76s76 34.093 76 76c0 17.628-6.171 34.807-17.377 48.37-.248.301-58.621 75.16-58.621 75.16zm44.166-24.089c15.64-20.042 30.424-38.991 30.481-39.075.463-.573.902-1.163 1.351-1.745v22.147c0 14.146 4.91 27.62 13.708 38.347-15.788-4.916-31.051-11.498-45.54-19.674zm71.848-196.612 21.818 14.098c.402.26.822.491 1.257.69l35.454 16.266c-4.165 1.208-7.213 5.044-7.213 9.598 0 5.523 4.478 10 10 10h17.613v41.386c0 2.343-1.906 4.25-4.25 4.25-13.371 0-24.25 10.878-24.25 24.25 0 14.188-5.857 27.972-16.071 37.82l-45.963 44.321c-5.417-7.022-8.413-15.679-8.413-24.74v-81.706l-.012.01c-.31-32.533-16.88-61.245-41.962-78.385 1.221-2.614 2.703-5.111 4.452-7.463 13.406-18.014 38.68-22.58 57.54-10.395zm-73.583-1.543c-2.328 3.129-4.341 6.434-6.034 9.888-11.231-4.619-23.521-7.174-36.398-7.174-28.699 0-54.493 12.662-72.1 32.689-2.587-14.092-3.901-28.45-3.901-42.905 0-32.844 6.752-64.137 18.927-92.578l8.989 18.019c12.839 25.737 35.946 45.425 63.395 54.016l42.623 13.34c-5.836 3.883-11.106 8.797-15.501 14.705zm105.817-174.227c7.322 5.375 8.975 15.753 3.684 23.136l-42.732 59.632c-3.122 4.356-8.184 6.957-13.543 6.957-12.691 0-24.298 6.417-31.047 17.165-6.237 9.932-7.341 21.993-3.123 32.788l-40.204-12.583c-22.286-6.976-41.047-22.96-51.472-43.857l-15.198-30.465c-.186-.374-.399-.725-.624-1.064 26.78-47.778 69.691-85.338 121.311-105.255zm171.75-69.178c41.906 0 76 34.093 76 76 0 17.628-6.171 34.807-17.377 48.37-.249.301-58.621 75.159-58.621 75.159s-58.835-75.421-58.944-75.556c-11-13.496-17.058-30.533-17.058-47.973 0-41.907 34.094-76 76-76zm30.837 374.674c-25.462-2.628-45.432-25.523-45.432-53.294 0-8.637-.598-17.25-1.763-25.78h6.358c5.522 0 10-4.477 10-10s-4.478-10-10-10h-10.205c-.3-1.209-.588-2.422-.912-3.625-6.409-23.818-25.665-41.724-49.056-45.616-11.682-1.944-21.676-8.826-28.141-19.377-6.959-11.357-8.619-25.237-4.555-38.08 4.756-15.031 16.605-25.978 30.943-29.049l64.039 82.082c1.896 2.428 4.804 3.848 7.884 3.849h.001c3.08 0 5.988-1.419 7.883-3.847l53.354-68.354c9.793 26.246 14.765 53.86 14.765 82.32 0 50.438-16.209 98.913-45.163 138.771z"/><path id="XMLID_764_" d="m96 320.298c-23.871 0-43.291 19.42-43.291 43.29 0 23.871 19.42 43.291 43.291 43.291s43.291-19.42 43.291-43.291c0-23.87-19.42-43.29-43.291-43.29zm0 66.581c-12.842 0-23.291-10.448-23.291-23.291s10.448-23.29 23.291-23.29 23.291 10.448 23.291 23.29-10.449 23.291-23.291 23.291z"/><path id="XMLID_765_" d="m445 267.129c-5.522 0-10 4.477-10 10v8.538c0 5.523 4.478 10 10 10s10-4.477 10-10v-8.538c0-5.523-4.478-10-10-10z"/><path id="XMLID_766_" d="m357.771 305.698c0-5.523-4.478-10-10-10h-7.459c-5.522 0-10 4.477-10 10s4.478 10 10 10h7.459c5.523 0 10-4.477 10-10z"/><path id="XMLID_767_" d="m228.799 340.484c2.559 0 5.119-.976 7.071-2.929l8.635-8.635c3.905-3.905 3.905-10.237 0-14.143-3.905-3.905-10.237-3.905-14.143 0l-8.635 8.635c-3.905 3.905-3.905 10.237 0 14.143 1.954 1.953 4.513 2.929 7.072 2.929z"/><path id="XMLID_768_" d="m358.03 469.41c-2.631 0-5.2 1.07-7.061 2.93-1.87 1.86-2.93 4.43-2.93 7.07 0 2.63 1.06 5.21 2.93 7.07 1.86 1.86 4.43 2.93 7.061 2.93 2.64 0 5.22-1.07 7.079-2.93 1.86-1.86 2.931-4.44 2.931-7.07s-1.07-5.21-2.931-7.07c-1.859-1.86-4.439-2.93-7.079-2.93z"/></g></g></svg>