<svg xmlns="http://www.w3.org/2000/svg" viewBox="0 0 670.29 189.39"><defs><style>.cls-1{fill:#c3922e;}</style></defs><g id="Layer_2" data-name="Layer 2"><g id="logistics"><path class="cls-1" d="M0,46.59Q40.28,23.19,80.67,0q0,83,0,166c-5.5-3-10.83-6.34-16.28-9.44.49-18.09.25-36.19.18-54.28-13.16,10.41-26.19,21-39.41,31.33-2-1.2-3.91-2.38-5.93-3.44-.11-4.55,0-9.11-.06-13.67C30,108.05,41.08,100,51.88,91.57,41,82.68,30.35,73.35,19.31,64.62c-.14-2.38-.16-4.76-.12-7.13,3.44-1.93,6.75-4.07,10.19-6C41.16,61.28,52.83,71.21,64.6,81c.15-17.56,0-35.13.07-52.71-16.16,9-32.1,18.41-48.1,27.68q.06,38.11,0,76.22c20.22,11.8,40.54,23.43,60.8,35.15,1.83.9,3.47,2.47,5.52,2.79,22-12.37,43.68-25.35,65.7-37.69.16-25.52,0-51,.07-76.58q-24.06-13.78-48-27.73c-.08,17.61,0,35.24,0,52.85,11.68-9.6,23.15-19.46,34.8-29.1C138.9,54,142.47,56,146.05,58c0,2.13,0,4.27-.05,6.41-10.92,9-21.75,18.06-32.59,27.14,10.74,8.52,22,16.41,32.65,25q0,6.74,0,13.48c-2,1.2-4,2.39-6.06,3.57-13.19-10.4-26.23-21-39.44-31.36.13,18.1-.26,36.21.29,54.31-5.45,3.1-10.81,6.34-16.26,9.45q-.15-83,0-165.93c27,15.19,53.57,31.05,80.54,46.23.22,31.79,0,63.57.12,95.36-27.46,15.94-55,31.67-82.44,47.71C55.11,173.62,27.58,157.58,0,141.66Q.14,94.13,0,46.59Z"/><path class="cls-1" d="M211.31,74l32.28-34.77v-.41h-17L199,69.57V38.85h-13.7v72.64H199V79.32l30.41,32.17h16.91v-.83Z"/><polygon class="cls-1" points="266.62 81.6 305.95 81.6 305.95 68.83 253.03 68.83 253.03 111.49 307.4 111.49 307.4 98 266.62 98 266.62 81.6"/><rect class="cls-1" x="253.03" y="38.85" width="54.38" height="13.28"/><path class="cls-1" d="M367.9,38.74V83.89l-35.59-45h-11.1v72.64H334.9v-49l38.19,49.08v-.1h8.51V38.74Z"/><path class="cls-1" d="M455.08,110.55,420.2,74l32.28-34.77v-.41h-17L407.85,69.57V38.85H394.16v72.64h13.69V79.32l30.41,32.17h16.91v-.83Z"/><path class="cls-1" d="M502.19,38.85H487.24l-32.16,71.7-.43.94h14.84L494.71,54.1l25.12,57.39h14.94Z"/><polygon class="cls-1" points="510.59 111.49 478.73 111.49 494.69 75.17 510.59 111.49"/><path class="cls-1" d="M570.78,38.85H542.24v72.64h28.54c25.42,0,36.63-18.58,36.32-36.95C606.78,56.59,595.69,38.85,570.78,38.85Zm0,59.46H555.83V51.82h14.95c15.77,0,22.41,11.31,22.72,22.62C593.81,86.27,587.28,98.31,570.78,98.31Z"/><rect class="cls-1" x="615.92" y="38.85" width="54.38" height="13.28"/><polygon class="cls-1" points="629.51 81.6 668.84 81.6 668.84 68.83 615.92 68.83 615.92 111.49 670.29 111.49 670.29 98 629.51 98 629.51 81.6"/><rect class="cls-1" x="185.26" y="136.73" width="104.51" height="3.48"/><rect class="cls-1" x="565.79" y="136.73" width="104.51" height="3.48"/><path class="cls-1" d="M301.73,151.06v-23h3v20.26h11.31v2.72Z"/><path class="cls-1" d="M329.7,139.86q0-5.72,3.08-9a10.42,10.42,0,0,1,7.93-3.24,11,11,0,0,1,5.73,1.52,9.88,9.88,0,0,1,3.9,4.24,13.81,13.81,0,0,1,1.34,6.17,13.53,13.53,0,0,1-1.41,6.25,9.63,9.63,0,0,1-4,4.18,11.35,11.35,0,0,1-5.58,1.42,10.82,10.82,0,0,1-5.8-1.57A10.08,10.08,0,0,1,331,145.6,13,13,0,0,1,329.7,139.86Zm3.14,0a9.22,9.22,0,0,0,2.23,6.55,7.79,7.79,0,0,0,11.26,0c1.48-1.61,2.21-3.89,2.21-6.85a11.83,11.83,0,0,0-.94-4.9,7.36,7.36,0,0,0-2.78-3.24,7.5,7.5,0,0,0-4.1-1.15,7.76,7.76,0,0,0-5.55,2.22C333.61,134,332.84,136.45,332.84,139.91Z"/><path class="cls-1" d="M377.27,142v-2.69l9.73,0v8.53a17.4,17.4,0,0,1-4.62,2.69,13.76,13.76,0,0,1-4.9.9,13.16,13.16,0,0,1-6.15-1.45,9.72,9.72,0,0,1-4.18-4.19,13.24,13.24,0,0,1-1.41-6.13,14.19,14.19,0,0,1,1.41-6.27,9.34,9.34,0,0,1,4-4.31,12.56,12.56,0,0,1,6.07-1.41,12,12,0,0,1,4.51.8,7.47,7.47,0,0,1,3.15,2.25,9.79,9.79,0,0,1,1.74,3.76l-2.74.76a8.46,8.46,0,0,0-1.28-2.76,5.33,5.33,0,0,0-2.2-1.61,8.05,8.05,0,0,0-3.16-.6,9.4,9.4,0,0,0-3.61.63,6.81,6.81,0,0,0-2.45,1.67,8,8,0,0,0-1.45,2.27,12,12,0,0,0-.88,4.63,11.15,11.15,0,0,0,1.06,5.14A6.73,6.73,0,0,0,373,147.7a9.52,9.52,0,0,0,4.29,1,10.17,10.17,0,0,0,3.86-.76,9.74,9.74,0,0,0,2.85-1.62V142Z"/><path class="cls-1" d="M402.91,151.06v-23h3v23Z"/><path class="cls-1" d="M421.2,143.67l2.86-.25a6.44,6.44,0,0,0,.95,2.83,5.21,5.21,0,0,0,2.32,1.79,8.8,8.8,0,0,0,3.52.68,8.3,8.3,0,0,0,3.07-.52,4.21,4.21,0,0,0,2-1.42,3.29,3.29,0,0,0,.65-2,3,3,0,0,0-.63-1.89,4.69,4.69,0,0,0-2.07-1.36,41.85,41.85,0,0,0-4.09-1.12,20.67,20.67,0,0,1-4.44-1.43,6.33,6.33,0,0,1-2.45-2.14,5.24,5.24,0,0,1-.81-2.86,5.8,5.8,0,0,1,1-3.25,6.09,6.09,0,0,1,2.89-2.3,11,11,0,0,1,4.21-.78,11.49,11.49,0,0,1,4.51.82,6.48,6.48,0,0,1,3,2.42,6.94,6.94,0,0,1,1.13,3.62l-2.92.22a4.65,4.65,0,0,0-1.59-3.29,6.19,6.19,0,0,0-4-1.11,6.38,6.38,0,0,0-4,1,3,3,0,0,0-1.26,2.43,2.59,2.59,0,0,0,.89,2q.87.79,4.58,1.64a30.24,30.24,0,0,1,5.09,1.47,6.87,6.87,0,0,1,3,2.34,5.67,5.67,0,0,1,1,3.27,6.23,6.23,0,0,1-1.05,3.45,6.88,6.88,0,0,1-3,2.53,10.53,10.53,0,0,1-4.43.9,13.09,13.09,0,0,1-5.22-.91,7.33,7.33,0,0,1-3.31-2.74A7.7,7.7,0,0,1,421.2,143.67Z"/><path class="cls-1" d="M460.4,151.06V130.79h-7.57v-2.71h18.22v2.71h-7.61v20.27Z"/><path class="cls-1" d="M485.6,151.06v-23h3v23Z"/><path class="cls-1" d="M521.31,143l3,.77a10.15,10.15,0,0,1-3.44,5.71,9.47,9.47,0,0,1-6.07,2,11,11,0,0,1-6-1.51,9.4,9.4,0,0,1-3.55-4.39,15.6,15.6,0,0,1-1.21-6.16,13.47,13.47,0,0,1,1.37-6.26,9.39,9.39,0,0,1,3.9-4.06,11.48,11.48,0,0,1,5.58-1.38,9.39,9.39,0,0,1,5.79,1.75,9.14,9.14,0,0,1,3.28,4.94l-3,.7a7.16,7.16,0,0,0-2.32-3.65,6.22,6.22,0,0,0-3.83-1.14,7.43,7.43,0,0,0-4.43,1.27,6.7,6.7,0,0,0-2.5,3.41,13.68,13.68,0,0,0-.72,4.41,14,14,0,0,0,.86,5.12,6.37,6.37,0,0,0,2.65,3.26,7.42,7.42,0,0,0,3.91,1.09,6.49,6.49,0,0,0,4.32-1.48A7.55,7.55,0,0,0,521.31,143Z"/><path class="cls-1" d="M538,143.67l2.87-.25a6.19,6.19,0,0,0,.95,2.83,5.13,5.13,0,0,0,2.31,1.79,8.8,8.8,0,0,0,3.52.68,8.39,8.39,0,0,0,3.08-.52,4.13,4.13,0,0,0,2-1.42,3.29,3.29,0,0,0,.65-2,3,3,0,0,0-.63-1.89,4.63,4.63,0,0,0-2.07-1.36,41,41,0,0,0-4.09-1.12,20.34,20.34,0,0,1-4.43-1.43,6.29,6.29,0,0,1-2.46-2.14,5.31,5.31,0,0,1-.8-2.86,5.87,5.87,0,0,1,1-3.25,6.09,6.09,0,0,1,2.89-2.3,11,11,0,0,1,4.21-.78,11.49,11.49,0,0,1,4.51.82,6.48,6.48,0,0,1,3,2.42,6.94,6.94,0,0,1,1.13,3.62l-2.91.22a4.7,4.7,0,0,0-1.6-3.29,6.17,6.17,0,0,0-4-1.11,6.38,6.38,0,0,0-4,1,3,3,0,0,0-1.26,2.43,2.62,2.62,0,0,0,.89,2c.59.53,2.11,1.08,4.59,1.64a30,30,0,0,1,5.08,1.47,6.81,6.81,0,0,1,3,2.34,5.67,5.67,0,0,1,1,3.27,6.23,6.23,0,0,1-1,3.45,6.83,6.83,0,0,1-3,2.53,10.48,10.48,0,0,1-4.42.9,13.14,13.14,0,0,1-5.23-.91,7.33,7.33,0,0,1-3.31-2.74A7.7,7.7,0,0,1,538,143.67Z"/></g></g></svg>